<?xml version="1.0" encoding="utf-8"?>
<!-- Generator: Adobe Illustrator 28.0.0, SVG Export Plug-In . SVG Version: 6.00 Build 0)  -->
<svg version="1.1" id="Layer_1" xmlns="http://www.w3.org/2000/svg" xmlns:xlink="http://www.w3.org/1999/xlink" x="0px" y="0px"
	 viewBox="0 0 500 500" style="enable-background:new 0 0 500 500;" xml:space="preserve">
<style type="text/css">
	.st0{fill:url(#SVGID_1_);}
	.st1{fill:#66D490;}
	.st2{fill:url(#SVGID_00000152221936980464271950000010514691536843642535_);}
	.st3{fill:#6D4FFF;}
</style>
<linearGradient id="SVGID_1_" gradientUnits="userSpaceOnUse" x1="-582.0413" y1="724.2988" x2="-266.6413" y2="724.2988" gradientTransform="matrix(-1 0 0 1 -266.6413 -366.0488)">
	<stop  offset="0" style="stop-color:#FFFFFF"/>
	<stop  offset="1" style="stop-color:#6D4FFF"/>
</linearGradient>
<path class="st0" d="M97.9,500h119.6c13.6,0,26.2-7.3,33-19.1l59.8-103.6c6.8-11.8,6.8-26.3,0-38.1l-59.8-103.6
	c-6.8-11.8-19.4-19.1-33-19.1H97.9c-13.6,0-26.2,7.3-33,19.1L5.1,339.2c-6.8,11.8-6.8,26.3,0,38.1l59.8,103.6
	C71.7,492.7,84.3,500,97.9,500z"/>
<path class="st1" d="M465.9,500H293.8c-18.8,0-34.1-15.3-34.1-34.1V293.8c0-18.8,15.3-34.1,34.1-34.1h172.1
	c18.8,0,34.1,15.3,34.1,34.1v172.1C500,484.7,484.7,500,465.9,500z"/>
<linearGradient id="SVGID_00000036227503370245598270000002994755033627722624_" gradientUnits="userSpaceOnUse" x1="220" y1="362" x2="500" y2="362" gradientTransform="matrix(1 0 0 -1 0 502)">
	<stop  offset="0" style="stop-color:#FFFFFF"/>
	<stop  offset="1" style="stop-color:#66D490"/>
</linearGradient>
<circle style="fill:url(#SVGID_00000036227503370245598270000002994755033627722624_);" cx="360" cy="140" r="140"/>
<path class="st3" d="M296.1,269.6H32.5c-25.7,0-41.2-28.4-27.3-50L137,14.9c12.8-19.9,41.8-19.9,54.6,0l131.8,204.7
	C337.3,241.2,321.8,269.6,296.1,269.6z"/>
</svg>
